<?xml version="1.0" encoding="UTF-8"?>
<svg xmlns="http://www.w3.org/2000/svg" xmlns:xlink="http://www.w3.org/1999/xlink" width="48px" height="62px" viewBox="0 0 48 62" version="1.1">
<defs>
<filter id="alpha" filterUnits="objectBoundingBox" x="0%" y="0%" width="100%" height="100%">
  <feColorMatrix type="matrix" in="SourceGraphic" values="0 0 0 0 1 0 0 0 0 1 0 0 0 0 1 0 0 0 1 0"/>
</filter>
<mask id="mask0">
  <g filter="url(#alpha)">
<rect x="0" y="0" width="48" height="62" style="fill:rgb(0%,0%,0%);fill-opacity:0.8;stroke:none;"/>
  </g>
</mask>
<clipPath id="clip1">
  <rect x="0" y="0" width="48" height="62"/>
</clipPath>
<g id="surface5" clip-path="url(#clip1)">
<rect x="0" y="0" width="48" height="62" style="fill:rgb(100%,100%,100%);fill-opacity:1;stroke:none;"/>
</g>
<linearGradient id="linear0" gradientUnits="userSpaceOnUse" x1="172.942078" y1="77.475983" x2="26.670298" y2="76.313133" gradientTransform="matrix(0.145995,0,0,0.145059,5.706238,15.506007)">
<stop offset="0" style="stop-color:rgb(21.176471%,41.568627%,58.823529%);stop-opacity:1;"/>
<stop offset="1" style="stop-color:rgb(21.176471%,47.45098%,69.019608%);stop-opacity:1;"/>
</linearGradient>
<linearGradient id="linear1" gradientUnits="userSpaceOnUse" x1="224.23996" y1="144.757172" x2="-65.308502" y2="144.757172" gradientTransform="matrix(0.145995,0,0,0.145059,5.706238,15.506007)">
<stop offset="0" style="stop-color:rgb(100%,78.431373%,21.176471%);stop-opacity:1;"/>
<stop offset="1" style="stop-color:rgb(100%,90.980392%,45.098039%);stop-opacity:1;"/>
</linearGradient>
</defs>
<g id="surface1">
<use xlink:href="#surface5" mask="url(#mask0)"/>
<path style=" stroke:none;fill-rule:nonzero;fill:rgb(39.215687%,39.215687%,39.215687%);fill-opacity:1;" d="M 9.519531 9.851562 C 9.519531 7.96875 8.976562 7.003906 7.898438 6.949219 C 7.46875 6.929688 7.046875 6.996094 6.640625 7.15625 C 6.3125 7.269531 6.09375 7.386719 5.980469 7.5 L 5.980469 11.992188 C 6.667969 12.425781 7.285156 12.625 7.820312 12.59375 C 8.949219 12.519531 9.519531 11.605469 9.519531 9.851562 Z M 10.851562 9.929688 C 10.851562 10.886719 10.625 11.679688 10.171875 12.308594 C 9.664062 13.023438 8.964844 13.390625 8.066406 13.414062 C 7.390625 13.433594 6.695312 13.222656 5.980469 12.78125 L 5.980469 16.867188 L 4.820312 16.453125 L 4.820312 7.390625 C 5.011719 7.160156 5.253906 6.960938 5.550781 6.792969 C 6.242188 6.390625 7.078125 6.1875 8.066406 6.175781 L 8.082031 6.191406 C 8.984375 6.183594 9.679688 6.550781 10.167969 7.296875 C 10.621094 7.980469 10.851562 8.855469 10.851562 9.929688 Z M 10.851562 9.929688 "/>
<path style=" stroke:none;fill-rule:nonzero;fill:rgb(39.215687%,39.215687%,39.215687%);fill-opacity:1;" d="M 17.933594 12.609375 C 17.933594 13.890625 17.804688 14.777344 17.546875 15.273438 C 17.285156 15.765625 16.789062 16.160156 16.058594 16.453125 C 15.46875 16.6875 14.828125 16.8125 14.140625 16.832031 L 13.949219 16.109375 C 14.648438 16.015625 15.140625 15.917969 15.425781 15.824219 C 15.988281 15.636719 16.371094 15.347656 16.585938 14.957031 C 16.753906 14.640625 16.835938 14.039062 16.835938 13.144531 L 16.835938 12.84375 C 16.046875 13.203125 15.214844 13.378906 14.347656 13.378906 C 13.777344 13.378906 13.273438 13.203125 12.839844 12.84375 C 12.351562 12.457031 12.109375 11.960938 12.109375 11.363281 L 12.109375 6.570312 L 13.265625 6.175781 L 13.265625 11 C 13.265625 11.515625 13.433594 11.914062 13.769531 12.191406 C 14.105469 12.46875 14.539062 12.601562 15.070312 12.59375 C 15.601562 12.582031 16.167969 12.378906 16.773438 11.976562 L 16.773438 6.351562 L 17.933594 6.351562 Z M 17.933594 12.609375 "/>
<path style=" stroke:none;fill-rule:nonzero;fill:rgb(39.215687%,39.215687%,39.215687%);fill-opacity:1;" d="M 22.457031 13.347656 C 22.320312 13.359375 22.191406 13.367188 22.074219 13.367188 C 21.421875 13.367188 20.910156 13.210938 20.542969 12.898438 C 20.179688 12.589844 19.996094 12.160156 19.996094 11.609375 L 19.996094 7.074219 L 19.203125 7.074219 L 19.203125 6.351562 L 19.996094 6.351562 L 19.996094 4.425781 L 21.15625 4.015625 L 21.15625 6.351562 L 22.457031 6.351562 L 22.457031 7.074219 L 21.15625 7.074219 L 21.15625 11.578125 C 21.15625 12.011719 21.273438 12.316406 21.503906 12.496094 C 21.707031 12.644531 22.023438 12.726562 22.457031 12.75 Z M 22.457031 13.347656 "/>
<path style=" stroke:none;fill-rule:nonzero;fill:rgb(39.215687%,39.215687%,39.215687%);fill-opacity:1;" d="M 29.472656 13.253906 L 28.316406 13.253906 L 28.316406 8.808594 C 28.316406 8.359375 28.207031 7.96875 27.996094 7.644531 C 27.753906 7.277344 27.414062 7.089844 26.976562 7.089844 C 26.445312 7.089844 25.78125 7.371094 24.984375 7.925781 L 24.984375 13.253906 L 23.824219 13.253906 L 23.824219 2.628906 L 24.984375 2.269531 L 24.984375 7.105469 C 25.722656 6.570312 26.53125 6.304688 27.410156 6.304688 C 28.023438 6.304688 28.523438 6.507812 28.902344 6.917969 C 29.285156 7.328125 29.472656 7.835938 29.472656 8.445312 Z M 29.472656 13.253906 "/>
<path style=" stroke:none;fill-rule:nonzero;fill:rgb(39.215687%,39.215687%,39.215687%);fill-opacity:1;" d="M 35.632812 9.667969 C 35.632812 8.945312 35.496094 8.347656 35.222656 7.875 C 34.894531 7.300781 34.386719 6.996094 33.699219 6.964844 C 32.425781 7.039062 31.792969 7.941406 31.792969 9.675781 C 31.792969 10.472656 31.925781 11.136719 32.191406 11.667969 C 32.53125 12.347656 33.042969 12.683594 33.71875 12.671875 C 34.996094 12.660156 35.632812 11.660156 35.632812 9.667969 Z M 36.902344 9.675781 C 36.902344 10.707031 36.636719 11.5625 36.109375 12.246094 C 35.527344 13.011719 34.722656 13.398438 33.699219 13.398438 C 32.679688 13.398438 31.886719 13.011719 31.316406 12.246094 C 30.796875 11.5625 30.539062 10.707031 30.539062 9.675781 C 30.539062 8.710938 30.820312 7.894531 31.378906 7.234375 C 31.972656 6.53125 32.75 6.175781 33.714844 6.175781 C 34.675781 6.175781 35.460938 6.53125 36.0625 7.234375 C 36.625 7.894531 36.902344 8.710938 36.902344 9.675781 Z M 36.902344 9.675781 "/>
<path style=" stroke:none;fill-rule:nonzero;fill:rgb(39.215687%,39.215687%,39.215687%);fill-opacity:1;" d="M 43.546875 13.253906 L 42.386719 13.253906 L 42.386719 8.558594 C 42.386719 8.042969 42.234375 7.640625 41.921875 7.351562 C 41.609375 7.0625 41.191406 6.921875 40.675781 6.933594 C 40.125 6.945312 39.601562 7.121094 39.101562 7.46875 L 39.101562 13.253906 L 37.945312 13.253906 L 37.945312 7.328125 C 38.609375 6.84375 39.226562 6.53125 39.785156 6.382812 C 40.3125 6.246094 40.78125 6.175781 41.183594 6.175781 C 41.457031 6.175781 41.714844 6.203125 41.960938 6.257812 C 42.414062 6.359375 42.785156 6.554688 43.070312 6.839844 C 43.390625 7.15625 43.546875 7.53125 43.546875 7.976562 Z M 43.546875 13.253906 "/>
<path style=" stroke:none;fill-rule:nonzero;fill:rgb(18.039216%,34.901962%,49.019608%);fill-opacity:1;" d="M 9.613281 53.773438 C 9.613281 54.527344 9.433594 55.15625 9.078125 55.652344 C 8.675781 56.214844 8.121094 56.507812 7.410156 56.523438 C 6.875 56.539062 6.324219 56.375 5.757812 56.027344 L 5.757812 59.246094 L 4.855469 58.925781 L 4.871094 51.769531 C 5.019531 51.589844 5.210938 51.429688 5.445312 51.296875 C 5.988281 50.984375 6.648438 50.820312 7.421875 50.8125 L 7.4375 50.824219 C 8.144531 50.816406 8.691406 51.109375 9.078125 51.695312 C 9.433594 52.234375 9.613281 52.929688 9.613281 53.773438 M 8.5625 53.710938 C 8.5625 52.226562 8.132812 51.464844 7.273438 51.421875 C 6.929688 51.40625 6.597656 51.460938 6.273438 51.585938 C 6.011719 51.675781 5.835938 51.765625 5.746094 51.859375 L 5.746094 55.402344 C 6.296875 55.742188 6.785156 55.902344 7.210938 55.875 C 8.113281 55.816406 8.5625 55.097656 8.5625 53.710938 M 15.394531 53.574219 C 15.394531 54.386719 15.1875 55.0625 14.769531 55.601562 C 14.308594 56.207031 13.675781 56.511719 12.867188 56.511719 C 12.066406 56.511719 11.4375 56.207031 10.988281 55.601562 C 10.578125 55.0625 10.375 54.386719 10.375 53.574219 C 10.375 52.8125 10.597656 52.167969 11.039062 51.648438 C 11.503906 51.089844 12.121094 50.8125 12.878906 50.8125 C 13.636719 50.8125 14.257812 51.089844 14.730469 51.648438 C 15.175781 52.167969 15.394531 52.8125 15.394531 53.574219 M 14.394531 53.574219 C 14.394531 53.003906 14.285156 52.53125 14.070312 52.15625 C 13.808594 51.699219 13.410156 51.460938 12.867188 51.433594 C 11.863281 51.492188 11.363281 52.207031 11.363281 53.574219 L 11.375 53.574219 C 11.375 54.207031 11.480469 54.730469 11.6875 55.15625 C 11.957031 55.695312 12.355469 55.960938 12.890625 55.949219 C 13.894531 55.941406 14.394531 55.152344 14.394531 53.574219 M 23.332031 51.011719 L 21.84375 56.238281 L 21.089844 56.5 L 19.652344 52.15625 L 18.476562 56.238281 L 17.722656 56.5 L 15.957031 51.113281 L 16.796875 50.8125 L 18.199219 55.054688 L 19.3125 51.113281 L 20.152344 50.8125 L 21.566406 55.054688 L 22.769531 50.8125 L 23.332031 51.011719 M 28.269531 55.902344 C 27.917969 56.125 27.605469 56.277344 27.328125 56.363281 C 26.996094 56.460938 26.65625 56.511719 26.316406 56.511719 C 25.707031 56.511719 25.222656 56.355469 24.863281 56.050781 C 24.210938 55.503906 23.890625 54.738281 23.898438 53.761719 C 23.90625 52.957031 24.074219 52.292969 24.398438 51.769531 C 24.792969 51.15625 25.359375 50.851562 26.101562 50.851562 C 27.488281 50.851562 28.191406 51.757812 28.21875 53.574219 L 24.863281 53.574219 C 24.8125 54.28125 24.945312 54.851562 25.261719 55.292969 C 25.578125 55.722656 25.996094 55.929688 26.515625 55.914062 C 26.949219 55.898438 27.460938 55.746094 28.054688 55.464844 L 28.269531 55.902344 M 27.304688 53.050781 C 27.304688 52.613281 27.210938 52.238281 27.027344 51.933594 C 26.8125 51.585938 26.515625 51.410156 26.140625 51.410156 C 25.386719 51.410156 24.96875 51.953125 24.886719 53.039062 L 27.304688 53.050781 M 32.699219 50.839844 C 32.613281 51.003906 32.492188 51.25 32.335938 51.570312 C 32.101562 51.523438 31.929688 51.496094 31.820312 51.496094 L 31.808594 51.496094 C 31.308594 51.496094 30.863281 51.664062 30.46875 51.996094 L 30.46875 56.398438 L 29.554688 56.398438 L 29.554688 51.871094 C 29.898438 51.488281 30.332031 51.207031 30.859375 51.023438 C 31.316406 50.859375 31.726562 50.777344 32.085938 50.777344 C 32.285156 50.777344 32.488281 50.796875 32.699219 50.839844 M 37.683594 55.902344 C 37.332031 56.125 37.019531 56.277344 36.742188 56.363281 C 36.410156 56.460938 36.070312 56.511719 35.730469 56.511719 C 35.121094 56.511719 34.636719 56.355469 34.277344 56.050781 C 33.625 55.503906 33.304688 54.738281 33.3125 53.761719 C 33.320312 52.957031 33.488281 52.292969 33.8125 51.769531 C 34.207031 51.15625 34.773438 50.851562 35.515625 50.851562 C 36.902344 50.851562 37.609375 51.757812 37.632812 53.574219 L 34.277344 53.574219 C 34.226562 54.28125 34.359375 54.851562 34.675781 55.292969 C 34.996094 55.722656 35.414062 55.929688 35.929688 55.914062 C 36.363281 55.898438 36.878906 55.746094 37.46875 55.464844 L 37.683594 55.902344 M 36.71875 53.050781 C 36.71875 52.613281 36.625 52.238281 36.441406 51.933594 C 36.226562 51.585938 35.929688 51.410156 35.554688 51.410156 C 34.804688 51.410156 34.386719 51.953125 34.300781 53.039062 L 36.71875 53.050781 M 43.390625 55.539062 C 42.574219 56.171875 41.695312 56.488281 40.761719 56.5 C 40.066406 56.5 39.523438 56.1875 39.121094 55.566406 C 38.769531 55.027344 38.59375 54.390625 38.59375 53.660156 C 38.59375 52.933594 38.78125 52.289062 39.160156 51.734375 C 39.585938 51.113281 40.152344 50.804688 40.859375 50.8125 C 41.402344 50.8125 41.949219 50.945312 42.5 51.210938 L 42.5 48.015625 L 43.378906 47.714844 L 43.390625 55.539062 M 42.5 55.441406 L 42.5 51.90625 C 41.96875 51.574219 41.496094 51.410156 41.085938 51.410156 C 40.570312 51.410156 40.175781 51.679688 39.910156 52.21875 C 39.691406 52.648438 39.585938 53.152344 39.585938 53.722656 C 39.585938 54.269531 39.6875 54.75 39.898438 55.15625 C 40.15625 55.683594 40.535156 55.949219 41.035156 55.949219 C 41.503906 55.949219 41.992188 55.78125 42.5 55.441406 "/>
<path style=" stroke:none;fill-rule:nonzero;fill:url(#linear0);" d="M 17.046875 22.332031 C 17.046875 20.359375 17.578125 19.28125 20.523438 18.769531 C 22.523438 18.421875 25.085938 18.378906 27.476562 18.769531 C 29.367188 19.082031 30.953125 20.476562 30.953125 22.332031 L 30.953125 28.851562 C 30.953125 30.765625 29.410156 32.332031 27.476562 32.332031 L 20.523438 32.332031 C 18.164062 32.332031 16.175781 34.332031 16.175781 36.589844 L 16.175781 39.71875 L 13.785156 39.71875 C 11.761719 39.71875 10.585938 38.269531 10.089844 36.242188 C 9.421875 33.519531 9.449219 31.898438 10.089844 29.289062 C 10.644531 27.011719 12.414062 25.8125 14.4375 25.8125 L 24 25.8125 L 24 24.941406 L 17.046875 24.941406 Z M 17.046875 22.332031 "/>
<path style=" stroke:none;fill-rule:nonzero;fill:url(#linear1);" d="M 30.953125 43.199219 C 30.953125 45.175781 29.230469 46.175781 27.476562 46.675781 C 24.839844 47.425781 22.726562 47.3125 20.523438 46.675781 C 18.683594 46.140625 17.046875 45.054688 17.046875 43.199219 L 17.046875 36.679688 C 17.046875 34.800781 18.621094 33.199219 20.523438 33.199219 L 27.476562 33.199219 C 29.792969 33.199219 31.824219 31.210938 31.824219 28.851562 L 31.824219 25.8125 L 34.433594 25.8125 C 36.457031 25.8125 37.410156 27.308594 37.910156 29.289062 C 38.605469 32.039062 38.636719 34.097656 37.910156 36.242188 C 37.207031 38.328125 36.457031 39.71875 34.433594 39.71875 L 24 39.71875 L 24 40.589844 L 30.953125 40.589844 Z M 30.953125 43.199219 "/>
<path style=" stroke:none;fill-rule:nonzero;fill:rgb(100%,100%,100%);fill-opacity:1;" d="M 18.785156 21.902344 C 18.785156 21.179688 19.367188 20.59375 20.089844 20.59375 C 20.808594 20.59375 21.390625 21.179688 21.390625 21.902344 C 21.390625 22.621094 20.808594 23.203125 20.089844 23.203125 C 19.367188 23.203125 18.785156 22.621094 18.785156 21.902344 Z M 18.785156 21.902344 "/>
<path style=" stroke:none;fill-rule:nonzero;fill:rgb(100%,100%,100%);fill-opacity:1;" d="M 26.609375 43.628906 C 26.609375 42.910156 27.195312 42.328125 27.914062 42.328125 C 28.632812 42.328125 29.214844 42.910156 29.214844 43.628906 C 29.214844 44.351562 28.632812 44.9375 27.914062 44.9375 C 27.195312 44.9375 26.609375 44.351562 26.609375 43.628906 Z M 26.609375 43.628906 "/>
</g>
</svg>
